# xmcd
#
# Track frame offsets:
#	150
#	16021
#	36498
#	55398
#	68751
#	86097
#	108960
#	128710
#	149743
#	155024
#	180440
#	204630
#	225893
#	229948
#	246495
#
# Disc length: 3515 seconds
#
# Revision: 0
# Processed by: cddbd v1.4PL0 Copyright (c) Steve Scherf et al.
# Submitted via: dBpowerAMP V4.0
#
DISCID=cf0db90f
DTITLE=Terri walker - untitled
DYEAR=1900
DGENRE=R&B
TTITLE0=love fool
TTITLE1=drawing board
TTITLE2=guess you didn't love me
TTITLE3=it's all good
TTITLE4=ching ching
TTITLE5=fake
TTITLE6=what will i do
TTITLE7=love you for life
TTITLE8=deutschland
TTITLE9=dirty week end
TTITLE10=4 feet under
TTITLE11=da business
TTITLE12=for life-reprise
TTITLE13=brand new day
TTITLE14=bonus track
EXTD=
EXTT0=
EXTT1=
EXTT2=
EXTT3=
EXTT4=
EXTT5=
EXTT6=
EXTT7=
EXTT8=
EXTT9=
EXTT10=
EXTT11=
EXTT12=
EXTT13=
EXTT14=
PLAYORDER=
